<svg xmlns="http://www.w3.org/2000/svg" width="430" height="430" style="width:100%;height:100%;transform:translate3d(0,0,0);content-visibility:visible" viewBox="0 0 430 430"><defs><filter id="a" width="100%" height="100%" x="0%" y="0%" filterUnits="objectBoundingBox"><feComponentTransfer in="SourceGraphic"><feFuncA tableValues="1.0 0.0" type="table"/></feComponentTransfer></filter><filter id="c" width="100%" height="100%" x="0%" y="0%" filterUnits="objectBoundingBox"><feComponentTransfer in="SourceGraphic"><feFuncA tableValues="1.0 0.0" type="table"/></feComponentTransfer></filter><filter id="e" width="100%" height="100%" x="0%" y="0%" filterUnits="objectBoundingBox"><feComponentTransfer in="SourceGraphic"><feFuncA tableValues="1.0 0.0" type="table"/></feComponentTransfer></filter><filter id="g" width="100%" height="100%" x="0%" y="0%" filterUnits="objectBoundingBox"><feComponentTransfer in="SourceGraphic"><feFuncA tableValues="1.0 0.0" type="table"/></feComponentTransfer></filter><filter id="i" width="100%" height="100%" x="0%" y="0%" filterUnits="objectBoundingBox"><feComponentTransfer in="SourceGraphic"><feFuncA tableValues="1.0 0.0" type="table"/></feComponentTransfer></filter><filter id="k" width="100%" height="100%" x="0%" y="0%" filterUnits="objectBoundingBox"><feComponentTransfer in="SourceGraphic"><feFuncA tableValues="1.0 0.0" type="table"/></feComponentTransfer></filter><filter id="m" width="100%" height="100%" x="0%" y="0%" filterUnits="objectBoundingBox"><feComponentTransfer in="SourceGraphic"><feFuncA tableValues="1.0 0.0" type="table"/></feComponentTransfer></filter><filter id="o" width="100%" height="100%" x="0%" y="0%" filterUnits="objectBoundingBox"><feComponentTransfer in="SourceGraphic"><feFuncA tableValues="1.0 0.0" type="table"/></feComponentTransfer></filter><mask id="C" mask-type="alpha"><g filter="url(#a)"><path fill="#fff" d="M0 0h430v430H0z" opacity="0"/><use xmlns:ns1="http://www.w3.org/1999/xlink" ns1:href="#b"/></g></mask><mask id="B" mask-type="alpha"><g filter="url(#c)"><path fill="#fff" d="M0 0h430v430H0z" opacity="0"/><use xmlns:ns2="http://www.w3.org/1999/xlink" ns2:href="#d"/></g></mask><mask id="z" mask-type="alpha"><g filter="url(#e)"><path fill="#fff" d="M0 0h430v430H0z" opacity="0"/><use xmlns:ns3="http://www.w3.org/1999/xlink" ns3:href="#f"/></g></mask><mask id="y" mask-type="alpha"><g filter="url(#g)"><path fill="#fff" d="M0 0h430v430H0z" opacity="0"/><use xmlns:ns4="http://www.w3.org/1999/xlink" ns4:href="#h"/></g></mask><mask id="x" mask-type="alpha"><g filter="url(#i)"><path fill="#fff" d="M0 0h430v430H0z" opacity="0"/><use xmlns:ns5="http://www.w3.org/1999/xlink" ns5:href="#j"/></g></mask><mask id="w" mask-type="alpha"><g filter="url(#k)"><path fill="#fff" d="M0 0h430v430H0z" opacity="0"/><use xmlns:ns6="http://www.w3.org/1999/xlink" ns6:href="#l"/></g></mask><mask id="u" mask-type="alpha"><g filter="url(#m)"><path fill="#fff" d="M0 0h430v430H0z" opacity="0"/><use xmlns:ns7="http://www.w3.org/1999/xlink" ns7:href="#n"/></g></mask><mask id="s" mask-type="alpha"><g filter="url(#o)"><path fill="#fff" d="M0 0h430v430H0z" opacity="0"/><use xmlns:ns8="http://www.w3.org/1999/xlink" ns8:href="#p"/></g></mask><path id="b" style="display:none"/><path id="d" style="display:none"/><path id="j" fill="#EBE6EF" d="M-72.5 12.5c0 16.569 13.431 30 30 30h90v-.112c14.016-1.263 25-13.043 25-27.388 0-15.188 17.938-25.5 2.75-25.5-2.678 0-5.267.383-7.715 1.097C65.594-26.896 20.511-42.5 2.5-42.5c-16.594 0-30.49 11.548-34.092 27.045A29.9 29.9 0 0 0-42.5-17.5c-16.569 0-30 13.431-30 30" style="display:block" transform="translate(530.5 141.25)"/><path id="l" fill="#EBE6EF" d="M-.5 75.97V45.5c0-8.284 6.716-15 15-15h46c22.091 0 40-17.909 40-40s20.091-44-2-44c-4.631 0-9.079.787-13.216 2.235C78.986-71.672 21.975-82.5-.5-82.5c-25.434 0-46.433 18.991-49.59 43.566A34.85 34.85 0 0 0-65.5-42.5c-19.33 0-35 15.67-35 35v90h7.084" style="display:none" transform="translate(285.5 137.5)"/><path id="n" fill-opacity="0" stroke-linecap="round" stroke-linejoin="round" style="display:none"/><path id="p" fill-opacity="0" stroke-linecap="round" stroke-linejoin="round" style="display:none"/><path id="h" fill="#EBE6EF" d="M185 220v-90c0-19.33 15.67-35 35-35 5.53 0 10.76 1.282 15.41 3.566C238.567 73.991 259.566 55 285 55c22.474 0 87.486 12.328 93.784 32.735A40 40 0 0 1 392 85.5c22.091 0-6 20.409-6 42.5s-17.909 40-40 40h-46c-8.284 0-15 6.716-15 15v37" style="display:block"/><clipPath id="q"><path d="M0 0h430v430H0z"/></clipPath><clipPath id="A"><path d="M0 0h430v430H0z"/></clipPath><clipPath id="v"><path d="M0 0h430v430H0z"/></clipPath><clipPath id="t"><path d="M0 0h430v430H0z"/></clipPath><clipPath id="r"><path d="M0 0h430v430H0z"/></clipPath><g id="f" fill="#EBE6EF" style="display:block"><path d="M70 155c0 16.569 13.431 30 30 30h90v-.112c14.016-1.263 25-13.043 25-27.388 0-15.188 17.688-24.5 2.5-24.5-2.678 0-5.267.383-7.715 1.097C207.844 116.604 163.011 100 145 100c-16.594 0-30.49 11.548-34.092 27.045A29.9 29.9 0 0 0 100 125c-16.569 0-30 13.431-30 30"/><path fill-opacity=".7" d="M-72.5 12.5c0 16.569 13.431 30 30 30h90v-.112c14.016-1.263 25-13.043 25-27.388C72.5-.188 90.188-9.5 75-9.5c-2.678 0-5.267.383-7.715 1.097C65.344-25.896 20.511-42.5 2.5-42.5c-16.594 0-30.49 11.548-34.092 27.045A29.9 29.9 0 0 0-42.5-17.5c-16.569 0-30 13.431-30 30" style="mix-blend-mode:multiply" transform="translate(142.5 142.5)"/></g></defs><g clip-path="url(#q)"><g clip-path="url(#r)" style="display:none"><g mask="url(#s)" style="display:none"><path class="primary"/><path class="primary" style="mix-blend-mode:multiply"/><path class="primary"/><path class="primary" style="mix-blend-mode:multiply"/><path class="primary"/><path class="primary" style="mix-blend-mode:multiply"/><path class="secondary"/><path class="secondary"/><path class="secondary" style="mix-blend-mode:multiply"/><path class="tertiary"/><path class="tertiary" style="mix-blend-mode:multiply"/><path class="primary"/><path class="primary" style="mix-blend-mode:multiply"/><path class="primary" style="mix-blend-mode:multiply"/><path class="secondary" style="mix-blend-mode:multiply"/><path class="quaternary"/><path class="quaternary" style="mix-blend-mode:multiply"/></g><path fill="none" class="secondary" style="display:none"/></g><g clip-path="url(#t)" style="display:none"><g mask="url(#u)" style="display:none"><path class="primary"/><path class="primary" style="mix-blend-mode:multiply"/><path class="primary"/><path class="primary" style="mix-blend-mode:multiply"/><path class="primary"/><path class="primary" style="mix-blend-mode:multiply"/><path class="secondary"/><path class="secondary"/><path class="secondary" style="mix-blend-mode:multiply"/><path class="tertiary"/><path class="tertiary" style="mix-blend-mode:multiply"/><path class="primary"/><path class="primary" style="mix-blend-mode:multiply"/><path class="primary" style="mix-blend-mode:multiply"/><path class="secondary" style="mix-blend-mode:multiply"/><path class="quaternary"/><path class="quaternary" style="mix-blend-mode:multiply"/></g><path fill="none" class="secondary" style="display:none"/></g><g clip-path="url(#v)" style="display:block"><g style="display:block"><path fill="#EBE6EF" d="M58 250a3 3 0 0 0-3 3v17.543a210 210 0 0 1-8.064 57.634l-10.845 38A3 3 0 0 0 38.976 370H175l-12.213-40.275a210 210 0 0 1-9.037-60.941V253a3 3 0 0 0-3-3z" class="primary"/><g opacity=".5" style="mix-blend-mode:multiply"><path fill="#EBE6EF" d="M58 250h22v20.543a210 210 0 0 1-8.064 57.634L60 370H38.976a3 3 0 0 1-2.885-3.823l10.845-38A210 210 0 0 0 55 270.543V253a3 3 0 0 1 3-3" class="primary" opacity="1"/></g><path fill="#F24C00" d="M153.75 268.784q0 5.617.299 11.216H54.787q.213-4.723.213-9.457V253a3 3 0 0 1 3-3h92.75a3 3 0 0 1 3 3z" class="secondary"/><g opacity=".5" style="mix-blend-mode:multiply"><path fill="#F24C00" d="M55 253a3 3 0 0 1 3-3h21.999v20.543q0 4.735-.213 9.457H54.787q.213-4.723.213-9.457z" class="secondary" opacity="1"/></g></g><g style="display:block"><path fill="#EBE6EF" d="M371.999 250h-95.75v20.267c0 19.664-2.9 39.221-8.606 58.039L254.999 370h140.745c2.074 0 3.523-2.054 2.826-4.008l-11.942-33.472a200 200 0 0 1-11.629-67.203V253a3 3 0 0 0-3-3" class="primary"/><g opacity=".5" style="mix-blend-mode:multiply"><path fill="#EBE6EF" d="M276.25 250h25v20.267c0 19.664-2.9 39.221-8.606 58.039L280 370h-25l12.644-41.694a200 200 0 0 0 8.606-58.039z" class="primary" opacity="1"/></g><path fill="#F24C00" d="M375 265.317c0 4.905.18 9.803.539 14.683h-99.526q.237-4.86.237-9.733V253a3 3 0 0 1 3-3H372a3 3 0 0 1 3 3z" class="secondary"/><g opacity=".5" style="mix-blend-mode:multiply"><path fill="#F24C00" d="M276.251 253a3 3 0 0 1 3-3h21.999v20.267q0 4.873-.237 9.733h-24.999q.237-4.86.237-9.733z" class="secondary" opacity="1"/></g></g><path fill="#EBE6EF" d="M-4.513 83.75H-.5V45.5c0-8.284 6.716-15 15-15h46c22.091 0 40-17.909 40-40s-17.909-40-40-40c-4.631 0-9.079.787-13.216 2.235C40.986-67.672 21.974-82.5-.5-82.5c-25.434 0-46.433 18.991-49.59 43.566A34.85 34.85 0 0 0-65.5-42.5c-19.33 0-35 15.67-35 35v90.514" class="primary" style="display:none" transform="translate(265.5 122.5)"/><g mask="url(#w)" opacity=".5" style="mix-blend-mode:multiply;display:none"><path fill="#EBE6EF" d="M260.955 205H265v-37c0-8.284 6.716-15 15-15h46c22.091 0 40-17.909 40-40s-17.909-40-40-40c-4.631 0-9.079.787-13.216 2.235C306.486 54.828 287.474 40 265 40c-25.434 0-46.433 18.991-49.59 43.566A34.85 34.85 0 0 0 200 80c-19.33 0-35 15.67-35 35v89.609" class="primary" opacity="1"/></g><g fill="#EBE6EF" style="display:block"><path d="M448 140c0 16.569 13.431 30 30 30h90v-.112c14.016-1.263 25-13.043 25-27.388 0-15.188-12.312-27.5-27.5-27.5-2.678 0-5.267.383-7.715 1.097C555.844 98.604 541.011 85 523 85c-16.594 0-30.49 11.548-34.092 27.045A29.9 29.9 0 0 0 478 110c-16.569 0-30 13.431-30 30" class="primary"/><path fill-opacity=".7" d="M-72.5 12.5c0 16.569 13.431 30 30 30h90v-.112c14.016-1.263 25-13.043 25-27.388C72.5-.188 60.188-12.5 45-12.5c-2.678 0-5.267.383-7.715 1.097C35.344-28.896 20.511-42.5 2.5-42.5c-16.594 0-30.49 11.548-34.092 27.045A29.9 29.9 0 0 0-42.5-17.5c-16.569 0-30 13.431-30 30" class="primary" style="mix-blend-mode:multiply" transform="translate(520.5 127.5)"/></g><g opacity=".4" style="mix-blend-mode:multiply;display:block"><g fill="#EBE6EF" mask="url(#x)" opacity="1"><path d="M448 140c0 16.569 13.431 30 30 30h90v-.112c14.016-1.263 25-13.043 25-27.388 0-15.188-12.312-27.5-27.5-27.5-2.678 0-5.267.383-7.715 1.097C555.844 98.604 541.011 85 523 85c-16.594 0-30.49 11.548-34.092 27.045A29.9 29.9 0 0 0 478 110c-16.569 0-30 13.431-30 30" class="primary"/><path fill-opacity=".7" d="M-72.5 12.5c0 16.569 13.431 30 30 30h90v-.112c14.016-1.263 25-13.043 25-27.388C72.5-.188 60.188-12.5 45-12.5c-2.678 0-5.267.383-7.715 1.097C35.344-28.896 20.511-42.5 2.5-42.5c-16.594 0-30.49 11.548-34.092 27.045A29.9 29.9 0 0 0-42.5-17.5c-16.569 0-30 13.431-30 30" class="primary" style="mix-blend-mode:multiply" transform="translate(520.5 127.5)"/></g></g><path fill="#EBE6EF" d="M165 207.5V115c0-19.33 15.67-35 35-35 5.53 0 10.76 1.282 15.41 3.566C218.567 58.991 239.566 40 265 40c22.474 0 41.486 14.828 47.784 35.235A40 40 0 0 1 326 73c22.091 0 40 17.909 40 40s-17.909 40-40 40h-46c-8.284 0-15 6.716-15 15v39.5" class="primary" style="display:block"/><g mask="url(#y)" opacity=".5" style="mix-blend-mode:multiply;display:block"><path fill="#EBE6EF" d="M165 207.5V115c0-19.33 15.67-35 35-35 5.53 0 10.76 1.282 15.41 3.566C218.567 58.991 239.566 40 265 40c22.474 0 41.486 14.828 47.784 35.235A40 40 0 0 1 326 73c22.091 0 40 17.909 40 40s-17.909 40-40 40h-46c-8.284 0-15 6.716-15 15v39.5" class="primary"/></g><g fill="#EBE6EF" style="display:block"><path d="M60 140c0 16.569 13.431 30 30 30h90v-.112c14.016-1.263 25-13.043 25-27.388 0-15.188-12.312-27.5-27.5-27.5-2.678 0-5.267.383-7.715 1.097C167.844 98.604 153.011 85 135 85c-16.594 0-30.49 11.548-34.092 27.045A29.9 29.9 0 0 0 90 110c-16.569 0-30 13.431-30 30" class="primary"/><path fill-opacity=".7" d="M-72.5 12.5c0 16.569 13.431 30 30 30h90v-.112c14.016-1.263 25-13.043 25-27.388C72.5-.188 60.188-12.5 45-12.5c-2.678 0-5.267.383-7.715 1.097C35.344-28.896 20.511-42.5 2.5-42.5c-16.594 0-30.49 11.548-34.092 27.045A29.9 29.9 0 0 0-42.5-17.5c-16.569 0-30 13.431-30 30" class="primary" style="mix-blend-mode:multiply" transform="translate(132.5 127.5)"/></g><g opacity=".4" style="mix-blend-mode:multiply;display:block"><g fill="#EBE6EF" mask="url(#z)" opacity="1"><path d="M60 140c0 16.569 13.431 30 30 30h90v-.112c14.016-1.263 25-13.043 25-27.388 0-15.188-12.312-27.5-27.5-27.5-2.678 0-5.267.383-7.715 1.097C167.844 98.604 153.011 85 135 85c-16.594 0-30.49 11.548-34.092 27.045A29.9 29.9 0 0 0 90 110c-16.569 0-30 13.431-30 30" class="primary"/><path fill-opacity=".7" d="M-72.5 12.5c0 16.569 13.431 30 30 30h90v-.112c14.016-1.263 25-13.043 25-27.388C72.5-.188 60.188-12.5 45-12.5c-2.678 0-5.267.383-7.715 1.097C35.344-28.896 20.511-42.5 2.5-42.5c-16.594 0-30.49 11.548-34.092 27.045A29.9 29.9 0 0 0-42.5-17.5c-16.569 0-30 13.431-30 30" class="primary" style="mix-blend-mode:multiply" transform="translate(132.5 127.5)"/></g></g><g style="display:block"><path fill="#3A3347" d="M153 205a3 3 0 0 0-3 3v14.162c0 36.664-5.761 73.101-17.072 107.977L120 371.875h190l-12.928-41.736A350 350 0 0 1 280 222.162V208a3 3 0 0 0-3-3z" class="tertiary"/><g opacity=".5" style="mix-blend-mode:multiply"><path fill="#3A3347" d="M153 205h27v17.162c0 36.664-5.761 73.101-17.072 107.977L150 371.875h-30l12.928-41.736A350 350 0 0 0 150 222.162V208a3 3 0 0 1 3-3" class="tertiary" opacity="1"/></g></g><g style="display:block"><path fill="#FFC738" d="M221.954 257.09v25.956h23.05c1.819 0 2.767 2.165 1.533 3.501l-34.872 37.778c-1.288 1.395-3.619.484-3.619-1.415v-25.956h-23.05c-1.819 0-2.767-2.165-1.533-3.501l34.872-37.778c1.288-1.395 3.619-.484 3.619 1.415" class="quaternary"/><g opacity=".5" style="mix-blend-mode:multiply"><path fill="#FFC738" d="m211.665 324.325 6.812-7.38v-24.859a2.086 2.086 0 0 0-2.086-2.086h-18.775l24.338-26.366v-6.544c0-1.899-2.331-2.81-3.619-1.415l-34.871 37.778c-1.234 1.336-.287 3.501 1.532 3.501h23.05v25.956c0 1.899 2.331 2.81 3.619 1.415" class="quaternary" opacity="1"/></g></g></g><g clip-path="url(#A)" style="display:none"><path class="primary" style="display:none"/><g mask="url(#B)" style="mix-blend-mode:multiply;display:none"><path class="primary"/></g><g style="display:none"><path class="primary"/><path class="primary" style="mix-blend-mode:multiply"/><path class="secondary"/><path class="secondary" style="mix-blend-mode:multiply"/></g><g style="display:none"><path class="primary"/><path class="primary" style="mix-blend-mode:multiply"/><path class="secondary"/><path class="secondary" style="mix-blend-mode:multiply"/></g><g style="display:none"><path class="tertiary"/><path class="tertiary" style="mix-blend-mode:multiply"/></g><g style="display:none"><path class="primary"/><path class="primary" style="mix-blend-mode:multiply"/></g><g mask="url(#C)" style="mix-blend-mode:multiply;display:none"><path class="primary"/></g><g style="display:none"><path class="quaternary"/><path class="quaternary" style="mix-blend-mode:multiply"/></g></g></g></svg>